# Blender 5.1.1
# www.blender.org
mtllib asteroid.mtl
o Cube
v 1.000000 1.000000 -1.000000
v 1.000000 -1.000000 -1.000000
v 1.000000 1.000000 1.000000
v 1.000000 -1.000000 1.000000
v -1.000000 1.000000 -1.000000
v -1.000000 -1.000000 -1.000000
v -1.000000 1.000000 1.000000
v -1.000000 -1.000000 1.000000
vn -0.0000 1.0000 -0.0000
vn -0.0000 -0.0000 1.0000
vn -1.0000 -0.0000 -0.0000
vn -0.0000 -1.0000 -0.0000
vn 1.0000 -0.0000 -0.0000
vn -0.0000 -0.0000 -1.0000
vt 0.625000 0.500000
vt 0.875000 0.500000
vt 0.875000 0.750000
vt 0.625000 0.750000
vt 0.375000 0.750000
vt 0.625000 1.000000
vt 0.375000 1.000000
vt 0.375000 0.000000
vt 0.625000 0.000000
vt 0.625000 0.250000
vt 0.375000 0.250000
vt 0.125000 0.500000
vt 0.375000 0.500000
vt 0.125000 0.750000
s 0
usemtl Material
f 1/1/1 5/2/1 7/3/1 3/4/1
f 4/5/2 3/4/2 7/6/2 8/7/2
f 8/8/3 7/9/3 5/10/3 6/11/3
f 6/12/4 2/13/4 4/5/4 8/14/4
f 2/13/5 1/1/5 3/4/5 4/5/5
f 6/11/6 5/10/6 1/1/6 2/13/6
o Asteroid_Mob_01_Asteroid_01_0
v -62.477539 34.216122 -78.831558
v -69.056725 68.642509 -49.165497
v -51.738708 75.603073 -62.460270
v -74.574905 26.763227 80.733383
v -64.984825 32.085655 84.239014
v -89.160751 43.053307 65.768188
v 62.063599 91.684578 39.004951
v 76.987732 57.685013 42.965553
v 88.417351 73.418633 12.053952
v -26.205368 8.746808 -85.116028
v -46.216652 12.384213 -100.079002
v -46.552654 32.090611 -86.293419
v -81.832832 -55.242657 -10.277676
v -89.778107 -66.023087 -19.992548
v -97.471756 -73.757637 -0.996144
v 43.204720 106.189896 37.813236
v 33.154144 119.365807 14.551195
v 24.101883 97.474960 48.669323
v -43.800667 -62.853539 -92.867317
v -70.955879 -38.000751 -74.977417
v -62.728050 -29.798538 -91.391815
v 95.934029 10.801486 43.969147
v 88.458153 -19.442616 73.666412
v 95.027306 -20.364145 43.925003
v 112.588692 42.100342 -22.458105
v 85.401314 73.582001 -6.818155
v 76.370232 -68.367790 -6.830429
v 64.489929 -85.805687 -14.214502
v 65.317078 -57.768276 -12.078875
v -2.608068 -89.532532 -8.463205
v 5.155139 -111.149040 4.631277
v -6.177685 -80.576256 6.351408
v 118.830513 19.696934 -24.314398
v 112.588692 42.100342 -22.458105
v 117.976395 29.588577 -14.777493
v 113.194397 3.612904 19.376225
v 110.789474 -17.773035 20.911491
v 119.571068 1.662219 -0.864154
v 38.208302 17.617203 108.378571
v 56.478168 1.239640 101.967422
v 49.804478 13.782023 96.554764
v 49.804478 13.782023 96.554764
v 66.435524 19.967169 96.909904
v 51.030731 29.949959 101.372543
v 4.328349 -44.149490 67.206741
v -11.434641 -63.396759 63.090240
v 18.105749 -47.421944 68.975960
v -104.284439 -51.124981 29.181633
v -104.512779 -69.935097 11.070000
v -106.229294 -68.254311 28.609102
v -90.948097 -84.455620 26.754465
v -106.002045 -77.496445 22.456282
v 31.239532 -44.253777 -113.750496
v 30.118366 11.437936 -113.849045
v 52.319218 -40.221935 -108.030121
v -47.419758 -38.080936 -103.075142
v -64.417000 -12.807282 -94.242500
v -47.883446 -8.540607 -107.301910
v -11.978984 -68.695335 -82.602448
v -20.312868 -68.980286 -93.289177
v -6.725464 -81.630249 -76.325569
v -93.312050 57.401695 -20.996853
v -96.852272 46.085655 -29.922119
v -101.786842 42.202751 -29.002779
v -59.395126 17.016626 99.148018
v -57.908955 -4.617260 100.218384
v -32.452751 16.797239 112.429062
v -23.454878 116.231590 6.435169
v 1.374830 110.920898 21.204065
v 2.007643 113.386002 -8.425756
v -1.911103 -108.652206 28.353313
v 7.112594 -101.346443 51.404102
v -14.910130 -95.817551 41.563301
v -26.186972 -81.082001 37.285778
v -36.463017 -69.846619 17.959099
v -9.446496 -85.563278 28.360439
v -21.387041 111.488136 33.514908
v -38.261948 105.229172 29.917492
v -40.609562 96.408325 43.562996
v -21.043777 -42.111912 -104.218414
v -70.955879 -38.000751 -74.977417
v -75.602180 -14.358138 -67.170464
v -60.763233 -19.332054 -77.132652
v -62.728050 -29.798538 -91.391815
v -91.218735 -55.599613 8.881142
v 108.395363 42.927151 -1.402783
v -4.166206 89.835030 -55.963192
v 23.110422 105.221664 -37.170715
v 7.855934 79.049042 -66.568184
v -110.311287 0.210817 5.365305
v -97.239143 -12.269327 13.896474
v -110.233429 -22.310781 30.524673
v -73.545258 15.406656 -73.137070
v -69.750725 -6.607890 -79.671417
v -75.602180 -14.358138 -67.170464
v -95.447845 -16.195004 -36.692753
v -83.368401 20.136887 -54.882416
v -73.545258 15.406656 -73.137070
v -6.725464 -81.630249 -76.325569
v 9.232929 -49.714115 -109.983276
v 3.955601 -77.885803 -79.582642
v -64.891289 68.918358 64.213158
v -62.365067 45.897743 76.576721
v -49.757801 55.471256 77.552429
v 7.624905 19.115976 -103.788345
v 22.220667 32.744968 -110.405693
v 2.650740 3.021207 -111.128029
v 28.773506 -62.745647 -101.735443
v 32.757420 -74.548737 -74.557449
v 3.955601 -77.885803 -79.582642
v 113.837769 -20.952929 0.152083
v 100.292999 -15.575112 -33.667732
v -2.608068 -89.532532 -8.463205
v -6.177685 -80.576256 6.351408
v -26.059704 -73.104614 -13.602906
v -22.431126 -83.173859 -28.175991
v -59.550079 94.556374 -28.574585
v -74.536758 75.420105 -31.707619
v 51.237175 105.866791 -9.329990
v 70.047989 93.487274 -1.620129
v 58.168232 85.024796 -3.058511
v 53.859161 67.497337 58.947594
v 35.668213 83.006653 57.403175
v 35.746456 67.478790 75.057350
v 78.559517 50.641396 -47.372562
v 59.957050 51.857918 -35.357147
v 89.637383 55.013935 -29.538633
v 42.725624 55.748962 91.621674
v -80.678955 -25.954865 83.501816
v -73.449951 -67.320915 67.927475
v -57.321499 -30.503939 89.135521
v -18.421816 -6.658950 86.271790
v -8.693633 -3.815720 100.252373
v -34.517681 -8.193617 83.738838
v -84.247040 -19.448296 -6.899597
v -83.017815 -38.684803 -29.497261
v -81.832832 -55.242657 -10.277676
v -89.202431 -9.235359 -17.585623
v -106.776535 1.237278 -13.214439
v -99.757675 -5.798119 -28.116772
v -83.110748 84.461166 1.721267
v -85.528786 67.325439 -20.004398
v -69.225563 66.308540 -27.757130
v -80.091026 46.999905 -22.801571
v -85.528786 67.325439 -20.004398
v -15.961390 55.690029 99.102730
v -41.998043 43.845150 92.942963
v -55.851925 98.948067 24.583431
v -80.291374 88.356064 21.260103
v -79.082321 81.843964 42.733849
v -22.609446 -75.197403 68.118042
v -57.140156 -67.334930 6.309863
v -68.403465 -85.049706 29.775640
v -76.251915 -85.653442 16.042507
v -51.142384 -85.157310 43.520653
v -44.599224 -71.924126 35.773304
v -57.742729 100.564560 2.298444
v -40.295155 96.798721 16.558184
v -33.627464 111.454231 1.889949
v 93.766502 27.318542 36.379993
v 90.030945 43.988899 29.004873
v 82.062996 31.363104 37.160988
v 93.766502 27.318542 36.379993
v 84.106804 23.662483 74.452782
v 13.063161 45.772900 106.521675
v 10.562761 62.363308 94.760544
v -15.961390 55.690029 99.102730
v 6.758029 29.505514 110.804611
v -24.810410 37.727207 108.850899
v -32.452751 16.797239 112.429062
v -80.678955 -25.954865 83.501816
v -79.394974 39.231552 -35.723980
v -89.467613 38.787926 -41.635880
v -96.852272 46.085655 -29.922119
v -111.520981 27.002022 -18.158775
v -106.776535 1.237278 -13.214439
v -110.311287 0.210817 5.365305
v -21.043777 -42.111912 -104.218414
v -20.312868 -68.980286 -93.289177
v -47.419758 -38.080936 -103.075142
v -64.417000 -12.807282 -94.242500
v -62.728050 -29.798538 -91.391815
v -60.763233 -19.332054 -77.132652
v -64.219933 4.751834 -95.755035
v -1.698319 13.614637 -89.234169
v -17.976429 30.660160 -74.595802
v 2.797451 43.000935 -90.854347
v -28.191313 56.591358 -78.942619
v -46.552654 32.090611 -86.293419
v 76.422073 -0.002127 -98.478004
v 87.168808 7.643475 -86.515923
v 85.407120 -22.496714 -85.542923
v 70.193298 -46.903996 -73.918694
v 63.062622 -36.993835 -55.502243
v 47.981628 -46.946873 -55.921417
v 47.209358 17.138254 -106.733643
v -83.017815 -38.684803 -29.497261
v -84.247040 -19.448296 -6.899597
v -106.776535 1.237278 -13.214439
v -83.887749 -5.756485 -6.659134
v -84.247040 -19.448296 -6.899597
v -73.762901 -80.843590 -11.405125
v -97.860092 24.813488 60.500988
v -96.192230 42.996948 36.869343
v -104.084213 21.111393 45.609867
v 2.411646 -22.229242 79.204536
v 10.833035 -15.681511 95.246284
v -33.435081 -22.423918 71.299995
v -18.967615 -52.564751 60.716927
v -38.738472 -54.899418 66.184120
v -49.164333 -28.076880 78.116714
v 35.287125 -58.450054 68.013535
v 11.456085 -69.800278 78.203423
v 38.865028 -67.788239 74.330421
v 11.456085 -69.800278 78.203423
v 35.287125 -58.450054 68.013535
v 88.562691 -43.183681 32.073891
v 92.843666 -44.878353 16.901148
v 88.562691 -43.183681 32.073891
v 79.437073 -35.029774 41.262783
v 89.563683 -45.887043 -16.343801
v 92.843666 -44.878353 16.901148
v 73.124794 -69.919754 35.982758
v 76.370232 -68.367790 -6.830429
v 71.039345 -43.669926 -15.965778
v 89.637383 55.013935 -29.538633
v 112.588692 42.100342 -22.458105
v 90.985413 32.954205 -56.226856
v 85.309181 37.856937 -80.095795
v 78.559517 50.641396 -47.372562
v 49.574699 116.283051 14.244595
v 53.859161 67.497337 58.947594
v -21.934708 78.879837 -64.712448
v -32.068863 91.888672 -43.790787
v -16.181959 107.215652 -26.300680
v -3.156588 -110.784492 -22.539070
v -22.893103 -106.574806 -37.686436
v -1.565796 -110.454048 -40.995522
v 40.949703 -68.949562 -36.248013
v 52.804169 -71.438606 -20.741379
v 52.954201 -88.383842 -26.088312
v 46.289906 -57.697422 -31.737566
v 47.218639 -68.543404 -65.513237
v 43.499809 -84.179337 -43.190548
v 32.757420 -74.548737 -74.557449
v 46.289906 -57.697422 -31.737566
v 41.542568 -60.677757 -53.198463
v 47.981628 -46.946873 -55.921417
v 18.391516 -104.526367 -45.579346
v 19.784321 -104.845062 49.995087
v 23.594936 -82.173653 67.375908
v 43.792534 -91.269485 52.968288
v 23.594936 -82.173653 67.375908
v 26.364016 -116.759499 5.454788
v 13.692533 -111.406494 -15.198736
v 36.723763 -103.838089 -19.149044
v -53.666672 -75.638908 -60.096611
v -47.834324 -87.465508 -37.102905
v -73.762901 -80.843590 -11.405125
v -43.901245 -73.702667 -28.073318
v 38.783463 106.878891 -20.097342
v 26.038340 90.233902 -45.809631
v -2.288962 74.928322 47.106674
v 20.502773 59.769318 66.302811
v 17.717913 78.601532 46.712322
v 35.746456 67.478790 75.057350
v 35.668213 83.006653 57.403175
v 0.517257 98.698196 46.612083
v 42.547256 -20.313509 85.394066
v 43.348663 -16.566561 103.123650
v 17.311499 -18.384300 110.125381
v -88.144043 -46.892242 -50.951603
v -95.447845 -16.195004 -36.692753
v -75.602180 -14.358138 -67.170464
v -70.955879 -38.000751 -74.977417
v 10.863366 53.247383 -94.871681
v -65.530861 52.071926 -42.218697
v -69.634552 48.021408 -32.368309
v -57.476368 30.516739 80.762161
v -62.365067 45.897743 76.576721
v -64.984825 32.085655 84.239014
v -48.875500 32.846344 94.725525
v -45.669285 41.861481 79.269714
v -57.476368 30.516739 80.762161
v 75.118561 44.671925 37.513256
v 75.506355 33.734596 49.748859
v 82.062996 31.363104 37.160988
v -40.609562 96.408325 43.562996
v -69.056725 68.642509 -49.165497
v -46.552654 32.090611 -86.293419
v -46.216652 12.384213 -100.079002
v -62.477539 34.216122 -78.831558
v 86.879425 -30.251629 -50.839985
v -32.068863 91.888672 -43.790787
v -19.098866 83.815758 -47.009014
v -21.934708 78.879837 -64.712448
v 38.783463 106.878891 -20.097342
v 43.643475 85.322853 -9.626602
v 39.194195 70.358925 -62.558239
v 99.694939 5.294355 -56.315708
v 85.309181 37.856937 -80.095795
v 90.985413 32.954205 -56.226856
v 86.879425 -30.251629 -50.839985
v 71.955383 -30.306246 -36.004875
v 71.955383 -30.306246 -36.004875
v 71.039345 -43.669926 -15.965778
v 84.106804 23.662483 74.452782
v -8.693633 -3.815720 100.252373
v -2.528393 -5.796006 113.560127
v -31.527550 -3.227093 108.194405
v -91.927094 38.508099 26.448742
v -105.577263 34.145790 18.678169
v -96.192230 42.996948 36.869343
v -83.887749 -5.756485 -6.659134
v 68.864822 20.852142 -102.118172
v 72.316231 34.647594 -97.225677
v -9.153581 56.176579 -83.068588
v -64.417000 -12.807282 -94.242500
v -64.984825 32.085655 84.239014
v 90.030945 43.988899 29.004873
v 93.766502 27.318542 36.379993
v -40.295155 96.798721 16.558184
v -57.742729 100.564560 2.298444
v -55.851925 98.948067 24.583431
v -44.599224 -71.924126 35.773304
v -36.463017 -69.846619 17.959099
v -74.536758 75.420105 -31.707619
v 50.464581 -46.252319 75.962914
v 59.641548 -35.579922 91.939896
v 42.547256 -20.313509 85.394066
v 70.047989 93.487274 -1.620129
v 10.562761 62.363308 94.760544
v 20.502773 59.769318 66.302811
v -11.454905 63.477962 67.200516
v -73.545258 15.406656 -73.137070
v 17.311499 -18.384300 110.125381
v 21.075485 -0.634448 113.967163
v 62.846512 -98.595772 11.452041
v 47.737625 -112.725876 7.907761
v 64.489929 -85.805687 -14.214502
v -80.416718 -64.248352 -46.116398
v -34.704136 -93.241570 -59.563408
v -22.893103 -106.574806 -37.686436
v 33.860287 66.248009 -35.993839
v 26.038340 90.233902 -45.809631
v 33.314671 77.587845 -21.043503
v 0.517257 98.698196 46.612083
v 74.899864 -48.701893 77.226120
v 78.111694 -23.861637 87.341560
v 95.934029 10.801486 43.969147
v 95.027306 -20.364145 43.925003
v 2.411646 -22.229242 79.204536
v 20.064835 -29.129478 73.469589
v 54.382557 -55.926601 -93.245949
v 47.218639 -68.543404 -65.513237
v 67.672318 48.859108 -86.444984
v 72.316231 34.647594 -97.225677
v 40.703159 45.434078 -95.482628
v -28.191313 56.591358 -78.942619
v -17.976429 30.660160 -74.595802
v -43.800667 -62.853539 -92.867317
v -27.117397 -83.008308 -75.778641
v -101.786842 42.202751 -29.002779
v -16.902025 69.537872 77.266266
v -18.600624 90.455139 58.195606
v -22.609446 -75.197403 68.118042
v -76.251915 -85.653442 16.042507
v -90.948097 -84.455620 26.754465
v -73.762901 -80.843590 -11.405125
v -38.261948 105.229172 29.917492
v -38.261948 105.229172 29.917492
v 90.030945 43.988899 29.004873
v 108.395363 42.927151 -1.402783
v 75.506355 33.734596 49.748859
v 78.162239 39.509502 63.784443
v -48.875500 32.846344 94.725525
v -111.424927 12.039805 16.904953
v -111.520981 27.002022 -18.158775
v -110.311287 0.210817 5.365305
v -1.698319 13.614637 -89.234169
v -22.228607 -7.948479 -104.985001
v -9.153581 56.176579 -83.068588
v 47.218639 -68.543404 -65.513237
v -95.447845 -16.195004 -36.692753
v -94.871933 -42.767773 -40.505215
v -88.144043 -46.892242 -50.951603
v -94.646683 -26.659285 65.192047
v -93.604431 -67.056068 49.893997
v -80.030579 63.492119 56.821632
v -79.082321 81.843964 42.733849
v -105.577263 34.145790 18.678169
v -50.452873 -62.246578 76.826538
v -57.321499 -30.503939 89.135521
v 59.641548 -35.579922 91.939896
v 50.464581 -46.252319 75.962914
v 52.604916 -61.516998 78.912552
v 49.909275 -74.525070 62.557865
v 74.899864 -48.701893 77.226120
v 59.641548 -35.579922 91.939896
v 38.208302 17.617203 108.378571
v 83.584175 -46.191422 54.885891
v 89.563683 -45.887043 -16.343801
v 43.204720 106.189896 37.813236
v 35.668213 83.006653 57.403175
v 42.817547 60.401657 -48.693298
v 33.860287 66.248009 -35.993839
v 39.194195 70.358925 -62.558239
v 63.949413 69.280663 -6.335880
v -18.636320 -101.940323 -55.310413
v -6.725464 -81.630249 -76.325569
v 3.955601 -77.885803 -79.582642
v -1.565796 -110.454048 -40.995522
v 62.846512 -98.595772 11.452041
v 64.489929 -85.805687 -14.214502
v 43.499809 -84.179337 -43.190548
v 47.218639 -68.543404 -65.513237
v 18.391516 -104.526367 -45.579346
v -51.883427 -66.326714 -16.543966
v -36.463017 -69.846619 17.959099
v 24.101883 97.474960 48.669323
v 63.949413 69.280663 -6.335880
v 85.401314 73.582001 -6.818155
v 63.625969 54.104950 -20.734943
v 88.724487 -29.025414 59.375202
v 35.746456 67.478790 75.057350
v 24.597891 -19.783875 89.121216
v 43.348663 -16.566561 103.123650
v 21.075485 -0.634448 113.967163
v 43.348663 -16.566561 103.123650
v -49.705223 -14.690423 97.823685
v -57.321499 -30.503939 89.135521
v -49.164333 -28.076880 78.116714
v -96.445404 57.454700 21.587032
v -65.530861 52.071926 -42.218697
v -74.739105 44.471302 -52.463066
v -69.634552 48.021408 -32.368309
v -49.757801 55.471256 77.552429
v -45.669285 41.861481 79.269714
v -41.998043 43.845150 92.942963
v -51.142384 -85.157310 43.520653
v -50.452873 -62.246578 76.826538
v -51.142384 -85.157310 43.520653
v -90.948097 -84.455620 26.754465
v -90.948097 -84.455620 26.754465
v -51.142384 -85.157310 43.520653
v -48.875500 32.846344 94.725525
v -45.669285 41.861481 79.269714
v -49.757801 55.471256 77.552429
v -74.739105 44.471302 -52.463066
v -89.467613 38.787926 -41.635880
v -80.091026 46.999905 -22.801571
v -46.216652 12.384213 -100.079002
v -64.219933 4.751834 -95.755035
v 47.209358 17.138254 -106.733643
v 22.220667 32.744968 -110.405693
v 30.118366 11.437936 -113.849045
v 9.232929 -49.714115 -109.983276
v -94.871933 -42.767773 -40.505215
v -83.017815 -38.684803 -29.497261
v -94.646683 -26.659285 65.192047
v -110.233429 -22.310781 30.524673
v -110.233429 -22.310781 30.524673
v -104.284439 -51.124981 29.181633
v -96.445404 57.454700 21.587032
v -95.166199 42.662392 18.886450
v -91.927094 38.508099 26.448742
v -57.908955 -4.617260 100.218384
v -49.705223 -14.690423 97.823685
v -34.517681 -8.193617 83.738838
v -32.452751 16.797239 112.429062
v -57.908955 -4.617260 100.218384
v -57.321499 -30.503939 89.135521
v 24.597891 -19.783875 89.121216
v 83.584175 -46.191422 54.885891
v 89.637383 55.013935 -29.538633
v 35.668213 83.006653 57.403175
v 23.983881 115.322433 -21.462399
v -74.536758 75.420105 -31.707619
v -59.550079 94.556374 -28.574585
v -57.742729 100.564560 2.298444
v -33.627464 111.454231 1.889949
v -47.834324 -87.465508 -37.102905
v -51.883427 -66.326714 -16.543966
v -47.834324 -87.465508 -37.102905
v 43.499809 -84.179337 -43.190548
v 52.954201 -88.383842 -26.088312
v 27.011427 -86.325226 53.192230
v 27.011427 -86.325226 53.192230
v 19.870491 -115.447174 26.530663
v 42.441845 -112.658592 29.745438
v 56.915882 -95.462669 42.310970
v 26.364016 -116.759499 5.454788
v 47.737625 -112.725876 7.907761
v 5.155139 -111.149040 4.631277
v 56.915882 -95.462669 42.310970
v 43.499809 -84.179337 -43.190548
v -27.117397 -83.008308 -75.778641
v -24.824934 -73.007278 -77.936653
v -13.441844 -76.952042 -73.350922
v -6.725464 -81.630249 -76.325569
v -3.156588 -110.784492 -22.539070
v -3.156588 -110.784492 -22.539070
v -22.893103 -106.574806 -37.686436
v -23.454878 116.231590 6.435169
v 2.007643 113.386002 -8.425756
v -4.166206 89.835030 -55.963192
v -21.934708 78.879837 -64.712448
v -19.098866 83.815758 -47.009014
v 33.314671 77.587845 -21.043503
v 65.155701 60.465168 -62.110798
v 51.237175 105.866791 -9.329990
v 49.574699 116.283051 14.244595
v 66.424622 101.983643 22.812654
v 23.983881 115.322433 -21.462399
v 51.237175 105.866791 -9.329990
v 65.155701 60.465168 -62.110798
v 89.563683 -45.887043 -16.343801
v 89.563683 -45.887043 -16.343801
v 70.193298 -46.903996 -73.918694
v 79.437073 -35.029774 41.262783
v 88.562691 -43.183681 32.073891
v 88.562691 -43.183681 32.073891
v 66.435524 19.967169 96.909904
v 1.097730 -74.155586 74.332184
v -33.435081 -22.423918 71.299995
v -106.229294 -68.254311 28.609102
v -106.002045 -77.496445 22.456282
v -89.778107 -66.023087 -19.992548
v -92.474892 -39.589813 24.743969
v -92.474892 -39.589813 24.743969
v -97.239143 -12.269327 13.896474
v 6.880713 -17.287189 -115.111107
v 39.194195 70.358925 -62.558239
v 20.193649 56.912323 -94.069405
v 10.863366 53.247383 -94.871681
v 2.650740 3.021207 -111.128029
v -22.228607 -7.948479 -104.985001
v 6.880713 -17.287189 -115.111107
v 9.232929 -49.714115 -109.983276
v 2.650740 3.021207 -111.128029
v -99.757675 -5.798119 -28.116772
v -109.894615 46.138908 -12.999237
v -105.577263 34.145790 18.678169
v -96.445404 57.454700 21.587032
v -93.312050 57.401695 -20.996853
v -96.852272 46.085655 -29.922119
v -24.810410 37.727207 108.850899
v 21.075485 -0.634448 113.967163
v -16.902025 69.537872 77.266266
v -16.902025 69.537872 77.266266
v 90.030945 43.988899 29.004873
v -18.600624 90.455139 58.195606
v -18.600624 90.455139 58.195606
v -18.600624 90.455139 58.195606
v -11.454905 63.477962 67.200516
v -2.288962 74.928322 47.106674
v -57.742729 100.564560 2.298444
v -57.140156 -67.334930 6.309863
v -36.463017 -69.846619 17.959099
v -1.911103 -108.652206 28.353313
v -14.910130 -95.817551 41.563301
v -16.902025 69.537872 77.266266
v -93.312050 57.401695 -20.996853
v -27.117397 -83.008308 -75.778641
v -24.824934 -73.007278 -77.936653
v -20.312868 -68.980286 -93.289177
v -11.978984 -68.695335 -82.602448
v -11.978984 -68.695335 -82.602448
v -13.441844 -76.952042 -73.350922
v -24.824934 -73.007278 -77.936653
v -20.312868 -68.980286 -93.289177
v 10.863366 53.247383 -94.871681
v -83.017815 -38.684803 -29.497261
v -83.017815 -38.684803 -29.497261
v -111.424927 12.039805 16.904953
v -50.452873 -62.246578 76.826538
v 59.641548 -35.579922 91.939896
v 39.194195 70.358925 -62.558239
v -32.068863 91.888672 -43.790787
v 40.949703 -68.949562 -36.248013
v 1.097730 -74.155586 74.332184
v 5.155139 -111.149040 4.631277
v -110.311287 0.210817 5.365305
v 2.650740 3.021207 -111.128029
v -70.955879 -38.000751 -74.977417
v -74.739105 44.471302 -52.463066
v -69.056725 68.642509 -49.165497
v 78.162239 39.509502 63.784443
v 76.987732 57.685013 42.965553
v 2.650740 3.021207 -111.128029
v 11.456085 -69.800278 78.203423
v -95.166199 42.662392 18.886450
v -28.191313 56.591358 -78.942619
v -38.261948 105.229172 29.917492
v -79.082321 81.843964 42.733849
v -38.261948 105.229172 29.917492
v 93.766502 27.318542 36.379993
v -13.441844 -76.952042 -73.350922
v -11.978984 -68.695335 -82.602448
v -6.725464 -81.630249 -76.325569
v -69.750725 -6.607890 -79.671417
v 20.193649 56.912323 -94.069405
v 85.401314 73.582001 -6.818155
v 62.846512 -98.595772 11.452041
v 43.792534 -91.269485 52.968288
v -96.445404 57.454700 21.587032
v -96.192230 42.996948 36.869343
v -110.233429 -22.310781 30.524673
v -110.233429 -22.310781 30.524673
v 78.162239 39.509502 63.784443
v 76.987732 57.685013 42.965553
v 78.162239 39.509502 63.784443
v 75.118561 44.671925 37.513256
v 89.563683 -45.887043 -16.343801
v -75.602180 -14.358138 -67.170464
v 90.030945 43.988899 29.004873
v 38.783463 106.878891 -20.097342
v 20.502773 59.769318 66.302811
vn -0.6033 0.4084 -0.6850
vn -0.8917 0.2984 -0.3402
vn -0.3842 0.6257 -0.6789
vn -0.6070 0.2411 0.7572
vn -0.2475 0.6269 0.7388
vn -0.7191 0.3820 0.5805
vn 0.5823 0.5099 0.6332
vn 0.8239 0.2697 0.4985
vn 0.8271 0.5196 0.2143
vn 0.1800 0.6095 -0.7721
vn 0.0487 0.5219 -0.8516
vn 0.0108 0.4279 -0.9038
vn -0.9490 0.3061 -0.0753
vn -0.9550 -0.2534 -0.1544
vn -0.7783 -0.3779 -0.5014
vn 0.2186 0.7584 0.6140
vn 0.0156 0.9836 0.1798
vn -0.0907 0.5324 0.8416
vn -0.4494 -0.5467 -0.7065
vn -0.7836 -0.1610 -0.6000
vn -0.8676 -0.1299 -0.4801
vn 0.9068 0.1476 0.3949
vn 0.8998 -0.1224 0.4188
vn 0.8646 -0.3292 0.3797
vn 0.8113 0.5134 -0.2798
vn 0.4404 0.7299 -0.5228
vn 0.7552 -0.4182 -0.5048
vn 0.7465 -0.3625 -0.5580
vn 0.4713 -0.2465 -0.8468
vn -0.8284 -0.4703 0.3044
vn -0.6170 -0.7867 -0.0189
vn -0.7080 -0.7047 -0.0475
vn 0.9437 0.0071 -0.3306
vn 0.8113 0.5133 -0.2798
vn 0.9571 0.2793 0.0769
vn 0.8953 0.1087 0.4320
vn 0.8765 -0.3041 0.3731
vn 0.9951 -0.0963 0.0211
vn 0.3598 0.1310 0.9238
vn 0.3861 0.0263 0.9221
vn 0.4061 0.1815 0.8956
vn 0.5144 0.2045 0.8328
vn 0.4085 0.1973 0.8912
vn -0.1341 -0.2619 0.9557
vn -0.1476 0.3070 0.9402
vn -0.1585 -0.0377 0.9866
vn -0.9817 0.1309 -0.1384
vn -0.9125 0.0864 -0.3999
vn -0.9626 -0.0672 0.2624
vn -0.3299 -0.9311 0.1559
vn -0.8112 -0.5837 0.0367
vn 0.1373 -0.3008 -0.9437
vn 0.1412 0.1230 -0.9823
vn 0.4548 -0.3028 -0.8375
vn -0.3950 -0.2782 -0.8755
vn -0.8588 -0.1767 -0.4809
vn -0.2539 0.0787 -0.9640
vn -0.5945 -0.8037 0.0250
vn -0.0473 -0.7359 -0.6754
vn -0.1183 -0.6664 -0.7362
vn -0.3744 0.5540 -0.7436
vn -0.2762 0.6966 -0.6622
vn -0.7195 0.3630 -0.5920
vn -0.5622 0.2390 0.7917
vn -0.4129 -0.1812 0.8926
vn -0.2518 0.0684 0.9654
vn -0.1682 0.9857 -0.0142
vn -0.0061 0.9647 0.2634
vn -0.1000 0.9906 -0.0931
vn -0.6380 -0.7695 0.0275
vn -0.2163 -0.7824 0.5840
vn -0.5737 -0.8186 -0.0286
vn -0.3352 -0.6721 -0.6603
vn -0.2525 -0.9561 -0.1485
vn -0.6954 -0.5932 -0.4056
vn -0.0953 0.9072 0.4097
vn -0.4610 0.8693 0.1781
vn -0.2887 0.7510 0.5939
vn -0.1673 -0.2361 -0.9572
vn -0.7836 -0.1609 -0.6000
vn -0.7875 -0.0593 -0.6135
vn -0.9039 -0.0987 -0.4161
vn -0.8676 -0.1299 -0.4800
vn -0.7576 0.4872 -0.4344
vn 0.8621 0.4031 0.3071
vn -0.1396 0.7568 -0.6386
vn 0.2881 0.7227 -0.6282
vn 0.1070 0.7388 -0.6653
vn -0.8959 -0.4055 -0.1812
vn -0.5831 -0.5884 -0.5601
vn -0.9594 -0.2487 -0.1332
vn -0.8575 0.1662 -0.4868
vn -0.8897 -0.2586 -0.3762
vn -0.7875 -0.0593 -0.6134
vn -0.9798 -0.1741 -0.0984
vn -0.8119 0.1497 -0.5643
vn -0.8575 0.1663 -0.4868
vn -0.1183 -0.6664 -0.7361
vn -0.1349 -0.4291 -0.8931
vn 0.0844 -0.7662 -0.6371
vn -0.3181 0.5855 0.7457
vn -0.2418 0.3688 0.8975
vn -0.3854 0.4527 0.8041
vn -0.7579 0.3441 -0.5543
vn -0.0960 0.3787 -0.9205
vn -0.4089 0.3706 -0.8340
vn 0.1465 -0.7381 -0.6586
vn 0.3825 -0.8102 -0.4441
vn 0.8963 -0.4335 -0.0934
vn 0.8629 -0.3976 -0.3119
vn -0.8283 -0.4703 0.3044
vn -0.7079 -0.7047 -0.0474
vn -0.4052 -0.8822 0.2400
vn -0.4812 -0.5635 0.6715
vn -0.4737 0.7980 -0.3725
vn -0.8566 0.1748 -0.4855
vn 0.6043 0.4462 -0.6601
vn 0.5707 0.5103 -0.6433
vn 0.2526 0.0908 -0.9633
vn 0.5495 0.5804 0.6010
vn -0.0079 0.5998 0.8001
vn 0.0451 0.8893 0.4550
vn 0.4565 0.8755 -0.1587
vn 0.2450 0.9693 -0.0217
vn 0.2941 0.8164 -0.4969
vn 0.4144 0.6437 0.6434
vn -0.5920 -0.1937 0.7823
vn -0.3429 -0.6360 0.6913
vn 0.2147 -0.4423 0.8708
vn -0.1235 -0.8578 0.4989
vn -0.2452 -0.9558 0.1624
vn 0.2944 -0.8206 0.4899
vn -0.9853 -0.1211 -0.1208
vn -0.8963 0.0195 0.4429
vn -0.7400 -0.5537 0.3819
vn -0.8008 -0.5712 -0.1801
vn -0.8797 -0.4514 -0.1495
vn -0.7282 0.6734 -0.1278
vn -0.6400 0.3529 -0.6825
vn -0.7865 -0.2638 -0.5585
vn -0.2218 0.5305 -0.8182
vn -0.2089 0.6753 0.7073
vn -0.6549 0.4896 0.5757
vn -0.2817 0.9536 0.1066
vn -0.6745 0.7282 0.1214
vn -0.6343 0.6376 0.4372
vn -0.1111 -0.3538 0.9287
vn 0.3377 -0.9343 -0.1138
vn 0.2434 -0.9555 -0.1664
vn 0.1812 -0.9721 -0.1492
vn -0.0168 -0.9980 -0.0613
vn 0.0442 -0.8226 -0.5669
vn -0.3859 0.9221 0.0294
vn -0.4791 0.8777 0.0122
vn -0.4521 0.8919 -0.0084
vn 0.7422 0.4974 0.4492
vn 0.7127 0.2851 0.6409
vn 0.5130 0.6875 0.5140
vn 0.8210 0.3262 0.4686
vn 0.1153 0.4175 0.9013
vn 0.0633 0.8683 0.4920
vn -0.2088 0.6753 0.7073
vn 0.0562 0.1826 0.9816
vn -0.2474 0.4008 0.8821
vn -0.2517 0.0684 0.9654
vn -0.5921 -0.1936 0.7823
vn -0.2640 0.9433 -0.2014
vn -0.4407 0.6841 -0.5812
vn -0.2761 0.6966 -0.6622
vn -0.9476 0.0020 -0.3195
vn -0.8960 -0.4055 -0.1812
vn -0.1672 -0.2362 -0.9572
vn -0.0474 -0.7359 -0.6755
vn -0.3951 -0.2783 -0.8755
vn -0.6961 0.1976 -0.6902
vn -0.6019 0.4442 -0.6636
vn -0.1266 0.1291 -0.9835
vn -0.6364 0.1001 -0.7648
vn -0.1058 0.3083 -0.9454
vn 0.0107 0.4279 -0.9038
vn 0.5681 -0.0224 -0.8227
vn 0.8414 0.0505 -0.5381
vn 0.8158 -0.3379 -0.4694
vn 0.6858 -0.7240 0.0741
vn 0.3903 -0.8596 0.3298
vn 0.7500 -0.6076 0.2614
vn 0.2743 0.1972 -0.9412
vn -0.8963 0.0195 0.4430
vn -0.9853 -0.1212 -0.1207
vn -0.8168 -0.5724 -0.0725
vn -0.9853 -0.1212 -0.1208
vn -0.0188 -0.9929 -0.1171
vn -0.8495 0.1786 0.4964
vn -0.9124 0.3914 0.1197
vn -0.9345 0.1960 0.2972
vn -0.1779 -0.6795 0.7118
vn -0.3420 -0.9099 0.2349
vn 0.1914 -0.4706 0.8613
vn 0.0383 -0.0211 0.9990
vn 0.4500 0.0931 0.8882
vn 0.6699 -0.3428 0.6586
vn -0.1488 0.1494 0.9775
vn -0.1286 -0.0489 0.9905
vn 0.0364 -0.1943 0.9803
vn -0.1287 -0.0489 0.9905
vn -0.1487 0.1493 0.9775
vn 0.8355 -0.3907 0.3864
vn 0.8079 -0.5763 0.1234
vn 0.8355 -0.3906 0.3864
vn 0.9257 -0.1979 0.3225
vn 0.5264 -0.7116 -0.4654
vn 0.8177 -0.5208 0.2452
vn 0.2780 -0.6411 -0.7153
vn 0.2941 0.8164 -0.4970
vn 0.8234 0.4606 -0.3314
vn 0.7981 0.4695 -0.3776
vn 0.4566 0.8754 -0.1587
vn 0.4240 0.9032 0.0671
vn 0.5495 0.5803 0.6011
vn -0.1261 0.7512 -0.6479
vn -0.1427 0.8014 -0.5808
vn -0.1663 0.8973 -0.4089
vn -0.4577 -0.8494 0.2627
vn -0.4960 -0.8328 0.2459
vn 0.0122 -0.9542 -0.2988
vn 0.9565 -0.0106 -0.2917
vn 0.7028 0.0248 -0.7110
vn 0.7335 -0.3446 -0.5858
vn 0.7865 -0.4460 -0.4272
vn 0.7977 -0.6011 0.0477
vn 0.8659 -0.3595 -0.3478
vn 0.3825 -0.8102 -0.4442
vn 0.7865 -0.4461 -0.4271
vn 0.9626 -0.1817 0.2009
vn 0.7500 -0.6076 0.2613
vn 0.3343 -0.8353 -0.4365
vn 0.0546 -0.7560 0.6523
vn 0.1615 -0.6735 0.7213
vn 0.2595 -0.6297 0.7322
vn 0.1614 -0.6735 0.7213
vn 0.0215 -0.9908 -0.1337
vn 0.0786 -0.9857 -0.1491
vn 0.4153 -0.8265 -0.3800
vn -0.6177 -0.6734 -0.4062
vn -0.3964 -0.8708 0.2907
vn -0.0187 -0.9929 -0.1171
vn 0.0047 -0.7323 0.6810
vn 0.6890 0.3980 -0.6057
vn 0.7358 0.4573 -0.4995
vn 0.3112 0.4317 0.8466
vn -0.2771 0.9083 0.3135
vn -0.2805 0.3523 0.8928
vn 0.0450 0.8894 0.4550
vn 0.1311 0.5591 0.8187
vn -0.3403 -0.7770 0.5295
vn 0.1556 -0.6042 0.7815
vn -0.0993 -0.7879 0.6077
vn -0.8032 -0.2622 -0.5348
vn -0.3547 0.4737 -0.8061
vn -0.9526 0.2715 0.1371
vn -0.7783 0.4967 -0.3841
vn -0.0375 0.8395 0.5420
vn -0.2417 0.3688 0.8975
vn -0.2475 0.6269 0.7387
vn -0.5705 0.6184 0.5405
vn -0.7068 0.2461 0.6632
vn -0.0375 0.8395 0.5421
vn 0.8569 -0.0421 0.5138
vn 0.7570 0.6282 -0.1798
vn 0.5130 0.6874 0.5141
vn -0.2886 0.7510 0.5939
vn -0.8917 0.2984 -0.3403
vn 0.0487 0.5220 -0.8516
vn -0.6034 0.4083 -0.6850
vn 0.5958 -0.7975 -0.0948
vn -0.2022 0.5810 -0.7884
vn -0.1262 0.7512 -0.6479
vn 0.5839 0.0946 -0.8063
vn 0.4892 0.8462 -0.2114
vn 0.9261 -0.0383 -0.3753
vn 0.7981 0.4694 -0.3776
vn 0.8235 0.4605 -0.3314
vn 0.2340 -0.9346 -0.2678
vn 0.2341 -0.9346 -0.2679
vn 0.2780 -0.6412 -0.7153
vn 0.8209 0.3263 0.4686
vn -0.2452 -0.9558 0.1623
vn -0.2446 -0.5801 0.7770
vn -0.0817 -0.6724 0.7357
vn -0.8276 0.5545 -0.0870
vn -0.8712 0.3904 0.2978
vn -0.9124 0.3915 0.1197
vn -0.8168 -0.5724 -0.0726
vn 0.3796 0.1170 -0.9177
vn 0.4632 0.4016 -0.7900
vn -0.4044 0.2015 -0.8921
vn 0.7127 0.2852 0.6408
vn -0.4791 0.8777 0.0121
vn -0.2816 0.9536 0.1065
vn 0.0443 -0.8226 -0.5669
vn -0.2524 -0.9562 -0.1485
vn -0.8565 0.1748 -0.4856
vn -0.5697 -0.2025 0.7965
vn -0.0550 -0.4631 0.8846
vn -0.3403 -0.7770 0.5296
vn 0.5707 0.5103 -0.6434
vn 0.0632 0.8683 0.4920
vn -0.2771 0.9083 0.3134
vn 0.5482 0.8017 0.2384
vn -0.0994 -0.7879 0.6077
vn 0.1552 -0.0600 0.9861
vn 0.7958 -0.6054 -0.0120
vn 0.4696 -0.8717 -0.1401
vn 0.7464 -0.3626 -0.5580
vn -0.6509 -0.6217 -0.4356
vn -0.4789 -0.7810 -0.4007
vn 0.7768 0.6175 -0.1235
vn 0.8051 0.2818 -0.5220
vn 0.1311 0.5591 0.8186
vn 0.6434 -0.5301 0.5524
vn 0.6474 -0.1886 0.7385
vn -0.1778 -0.6794 0.7119
vn -0.1759 -0.5125 0.8405
vn 0.5575 -0.6901 -0.4615
vn 0.7977 -0.6011 0.0476
vn 0.3738 0.7475 -0.5492
vn 0.4632 0.4017 -0.7900
vn 0.2397 0.6131 -0.7528
vn -0.4495 -0.5468 -0.7064
vn -0.0053 -0.6732 -0.7395
vn -0.7195 0.3630 -0.5921
vn 0.1538 0.8788 0.4517
vn 0.1597 0.6013 0.7829
vn -0.1111 -0.3539 0.9287
vn 0.1811 -0.9721 -0.1492
vn -0.3299 -0.9310 0.1559
vn -0.0188 -0.9929 -0.1172
vn -0.4609 0.8694 0.1781
vn 0.7127 0.2852 0.6409
vn 0.8621 0.4032 0.3071
vn 0.7571 0.6281 -0.1798
vn 0.7562 0.5675 0.3257
vn -0.5704 0.6184 0.5406
vn -0.9918 0.0719 0.1053
vn -0.9476 0.0020 -0.3194
vn -0.6018 0.4442 -0.6637
vn -0.0944 0.3555 -0.9299
vn -0.4044 0.2016 -0.8921
vn -0.9966 -0.0818 -0.0133
vn -0.8032 -0.2623 -0.5348
vn -0.8499 -0.1167 0.5139
vn -0.7084 -0.4525 0.5417
vn -0.6980 0.4851 0.5268
vn -0.6343 0.6376 0.4373
vn -0.8712 0.3903 0.2978
vn 0.1629 -0.4251 0.8903
vn -0.0551 -0.4631 0.8846
vn -0.5697 -0.2024 0.7965
vn -0.0379 -0.4813 0.8757
vn 0.4826 -0.6321 0.6063
vn 0.6433 -0.5301 0.5524
vn -0.0551 -0.4630 0.8846
vn 0.9359 -0.3299 0.1237
vn 0.5264 -0.7116 -0.4653
vn 0.2187 0.7584 0.6140
vn 0.4931 0.8334 0.2497
vn 0.7767 0.6176 -0.1235
vn 0.4892 0.8461 -0.2114
vn 0.1472 0.5039 -0.8511
vn -0.1441 -0.8484 -0.5095
vn 0.0122 -0.9542 -0.2989
vn 0.7959 -0.6054 -0.0120
vn 0.8659 -0.3596 -0.3478
vn 0.3344 -0.8353 -0.4364
vn 0.2019 -0.9159 0.3469
vn -0.0906 0.5324 0.8416
vn 0.1472 0.5040 -0.8511
vn 0.4405 0.7298 -0.5228
vn 0.1478 0.8597 -0.4890
vn 0.9206 -0.3823 0.0800
vn 0.0450 0.8893 0.4551
vn -0.0610 -0.9560 0.2870
vn 0.1553 -0.0600 0.9861
vn 0.1731 -0.6395 0.7490
vn 0.2147 -0.4424 0.8708
vn 0.6699 -0.3429 0.6585
vn -0.9123 0.3101 0.2674
vn -0.9526 0.2716 0.1371
vn -0.8298 0.4854 -0.2752
vn -0.7783 0.4968 -0.3840
vn -0.6550 0.4896 0.5756
vn -0.0167 -0.9980 -0.0613
vn 0.1630 -0.4251 0.8904
vn -0.0168 -0.9980 -0.0612
vn -0.3299 -0.9310 0.1560
vn -0.5704 0.6184 0.5405
vn -0.7069 0.2461 0.6631
vn -0.8298 0.4855 -0.2751
vn -0.2217 0.5305 -0.8182
vn 0.2743 0.1973 -0.9412
vn -0.0959 0.3787 -0.9205
vn -0.9966 -0.0818 -0.0134
vn -0.8963 0.0194 0.4430
vn -0.8499 -0.1166 0.5139
vn -0.9594 -0.2487 -0.1331
vn -0.9817 0.1309 -0.1385
vn -0.9123 0.3101 0.2673
vn -0.5417 0.0825 0.8365
vn -0.8276 0.5546 -0.0869
vn -0.4129 -0.1813 0.8926
vn -0.2517 0.0683 0.9654
vn -0.0610 -0.9560 0.2871
vn 0.9359 -0.3298 0.1237
vn 0.1304 0.9230 -0.3620
vn -0.3859 0.9221 0.0293
vn -0.4521 0.8919 -0.0085
vn 0.2020 -0.9159 0.3469
vn -0.3965 -0.8708 0.2907
vn 0.7335 -0.3447 -0.5858
vn 0.2680 -0.6979 0.6642
vn 0.2681 -0.6978 0.6642
vn -0.1165 -0.9725 0.2014
vn 0.3595 -0.8775 0.3174
vn 0.6352 -0.5969 0.4901
vn 0.4696 -0.8717 -0.1400
vn -0.6170 -0.7867 -0.0188
vn 0.6353 -0.5968 0.4901
vn -0.0052 -0.6732 -0.7395
vn 0.6858 -0.5976 -0.4153
vn -0.2013 -0.2233 -0.9537
vn -0.1182 -0.6664 -0.7362
vn -0.4577 -0.8494 0.2626
vn -0.4577 -0.8495 0.2626
vn -0.4961 -0.8327 0.2459
vn -0.1682 0.9856 -0.0143
vn -0.1001 0.9906 -0.0931
vn -0.1397 0.7567 -0.6386
vn -0.2022 0.5811 -0.7883
vn 0.8050 0.2819 -0.5220
vn 0.4367 0.8993 -0.0235
vn 0.6042 0.4462 -0.6601
vn 0.4241 0.9031 0.0671
vn 0.6897 0.6777 0.2552
vn 0.1304 0.9231 -0.3619
vn 0.4367 0.8993 -0.0236
vn 0.5263 -0.7116 -0.4653
vn -0.2558 -0.1791 0.9500
vn 0.1914 -0.4707 0.8613
vn -0.9626 -0.0672 0.2625
vn -0.8111 -0.5837 0.0368
vn -0.7384 0.0290 -0.6737
vn -0.7385 0.0289 -0.6737
vn -0.5832 -0.5884 -0.5601
vn -0.1565 -0.0036 -0.9877
vn 0.4892 0.8461 -0.2115
vn 0.0888 0.7024 -0.7062
vn -0.1566 -0.0036 -0.9877
vn -0.1349 -0.4290 -0.8932
vn -0.8797 -0.4514 -0.1494
vn -0.9012 0.3978 -0.1718
vn -0.2762 0.6965 -0.6622
vn -0.2475 0.4009 0.8821
vn 0.1537 0.8788 0.4517
vn 0.1596 0.6013 0.7829
vn 0.5482 0.8016 0.2384
vn 0.3112 0.4318 0.8466
vn 0.3377 -0.9344 -0.1137
vn 0.1538 0.8789 0.4516
vn -0.0475 -0.7359 -0.6754
vn -0.5944 -0.8038 0.0250
vn -0.3546 0.4737 -0.8061
vn 0.1629 -0.4251 0.8904
vn -0.1426 0.8014 -0.5809
vn 0.9565 -0.0106 -0.2916
vn -0.2559 -0.1791 0.9500
vn -0.4089 0.3706 -0.8339
vn -0.7836 -0.1610 -0.6001
vn 0.7562 0.5675 0.3258
vn 0.0887 0.7025 -0.7061
vn 0.4405 0.7299 -0.5228
vn 0.7958 -0.6054 -0.0119
vn -0.9124 0.3101 0.2673
vn -0.9594 -0.2486 -0.1331
vn 0.7562 0.5676 0.3256
vn 0.8239 0.2697 0.4984
vn 0.7561 0.5676 0.3257
vn 0.8569 -0.0422 0.5138
vn 0.5263 -0.7116 -0.4654
vt 0.522833 0.572013
vt 0.447151 0.567418
vt 0.455849 0.603281
vt 0.156143 0.680672
vt 0.174975 0.682056
vt 0.145087 0.640566
vt 0.607518 0.492385
vt 0.656004 0.528848
vt 0.670869 0.470246
vt 0.933333 0.497274
vt 0.972857 0.505283
vt 0.970419 0.464135
vt 0.792533 0.502775
vt 0.814991 0.518321
vt 0.832406 0.486635
vt 0.215322 0.521893
vt 0.221425 0.476352
vt 0.175925 0.526068
vt 0.793577 0.907419
vt 0.726405 0.910114
vt 0.740190 0.940132
vt 0.161584 0.283437
vt 0.139139 0.349439
vt 0.184319 0.330602
vt 0.755187 0.447740
vt 0.681291 0.440330
vt 0.568007 0.426027
vt 0.578131 0.389834
vt 0.542964 0.418863
vt 0.856330 0.174735
vt 0.871142 0.132633
vt 0.827651 0.166495
vt 0.129113 0.841605
vt 0.116469 0.805165
vt 0.110154 0.831291
vt 0.072633 0.887534
vt 0.082723 0.920224
vt 0.104972 0.879111
vt 0.018396 0.352836
vt 0.061085 0.354191
vt 0.041582 0.337280
vt 0.402956 0.547488
vt 0.431020 0.538754
vt 0.406057 0.519431
vt 0.414654 0.216319
vt 0.389256 0.248444
vt 0.439079 0.220829
vt 0.808222 0.428295
vt 0.832065 0.463548
vt 0.836767 0.435407
vt 0.874240 0.460855
vt 0.849086 0.449628
vt 0.353331 0.893530
vt 0.350564 0.802870
vt 0.320315 0.888615
vt 0.758663 0.556260
vt 0.720232 0.591261
vt 0.752232 0.603156
vt 0.676885 0.045119
vt 0.695886 0.033514
vt 0.654580 0.033514
vt 0.569317 0.712289
vt 0.560969 0.735427
vt 0.567117 0.743962
vt 0.175842 0.717418
vt 0.157155 0.747333
vt 0.215924 0.745449
vt 0.145722 0.418786
vt 0.169311 0.461997
vt 0.194998 0.419294
vt 0.430307 0.370776
vt 0.414387 0.331088
vt 0.392657 0.365776
vt 0.779465 0.131266
vt 0.771074 0.170530
vt 0.809629 0.134483
vt 0.127522 0.459034
vt 0.102922 0.442950
vt 0.085119 0.464073
vt 0.803350 0.556659
vt 0.977074 0.672245
vt 0.942677 0.648844
vt 0.942677 0.679316
vt 0.961723 0.701493
vt 0.801508 0.468486
vt 0.078772 0.813970
vt 0.435292 0.680962
vt 0.396204 0.724718
vt 0.460800 0.700701
vt 0.959269 0.173179
vt 0.926854 0.167996
vt 0.913027 0.203806
vt 0.675086 0.632123
vt 0.692994 0.597547
vt 0.672073 0.581310
vt 0.078726 0.164743
vt 0.130535 0.211980
vt 0.160974 0.194306
vt 0.864726 0.884532
vt 0.868217 0.965027
vt 0.879264 0.897294
vt 0.195748 0.616766
vt 0.187060 0.658731
vt 0.212780 0.653160
vt 0.942926 0.951769
vt 0.907905 0.950301
vt 0.960797 0.976390
vt 0.351629 0.927270
vt 0.329701 0.971514
vt 0.381307 0.979972
vt 0.114835 0.913161
vt 0.169928 0.892558
vt 0.108377 0.063810
vt 0.077753 0.063284
vt 0.092315 0.109155
vt 0.120767 0.109001
vt 0.393737 0.588052
vt 0.417267 0.554781
vt 0.775839 0.026258
vt 0.743286 0.049716
vt 0.764133 0.061344
vt 0.453195 0.436882
vt 0.430313 0.403782
vt 0.412534 0.439048
vt 0.906072 0.703421
vt 0.870291 0.706193
vt 0.906072 0.740338
vt 0.405907 0.472824
vt 0.672073 0.679809
vt 0.744974 0.679594
vt 0.682909 0.639217
vt 0.371921 0.122465
vt 0.388070 0.100846
vt 0.346568 0.126109
vt 0.920778 0.847622
vt 0.966478 0.830545
vt 0.946121 0.794135
vt 0.955823 0.739590
vt 0.930866 0.715458
vt 0.930866 0.744558
vt 0.593345 0.657319
vt 0.564382 0.692026
vt 0.310636 0.715777
vt 0.291588 0.746037
vt 0.327544 0.738510
vt 0.268314 0.691003
vt 0.219613 0.687233
vt 0.613318 0.596723
vt 0.620541 0.639887
vt 0.656841 0.633516
vt 0.343296 0.335480
vt 0.932196 0.632840
vt 0.884381 0.611690
vt 0.886672 0.638047
vt 0.738723 0.119413
vt 0.749144 0.145486
vt 0.221244 0.225101
vt 0.191757 0.248309
vt 0.221244 0.268567
vt 0.958457 0.573950
vt 0.978392 0.550782
vt 0.950780 0.555071
vt 0.158127 0.252678
vt 0.102480 0.289454
vt 0.352008 0.479412
vt 0.359988 0.447108
vt 0.314276 0.444919
vt 0.334023 0.501841
vt 0.289518 0.472315
vt 0.266573 0.501657
vt 0.097983 0.746226
vt 0.451667 0.057238
vt 0.445988 0.039802
vt 0.421527 0.049607
vt 0.060284 0.244030
vt 0.045350 0.203196
vt 0.014798 0.207755
vt 0.816856 0.956042
vt 0.833265 0.911297
vt 0.773885 0.947223
vt 0.931706 0.062914
vt 0.944061 0.037304
vt 0.914829 0.037304
vt 0.718237 0.620680
vt 0.968975 0.937026
vt 0.975413 0.892599
vt 0.929982 0.907457
vt 0.499994 0.636766
vt 0.536526 0.598625
vt 0.272812 0.834353
vt 0.244970 0.827911
vt 0.256478 0.873750
vt 0.545023 0.774208
vt 0.525493 0.804208
vt 0.549319 0.821335
vt 0.317691 0.795950
vt 0.969961 0.791033
vt 0.981202 0.744128
vt 0.974059 0.145809
vt 0.937528 0.127729
vt 0.915028 0.127729
vt 0.852688 0.525651
vt 0.115636 0.653250
vt 0.113597 0.604974
vt 0.092791 0.640115
vt 0.407168 0.146469
vt 0.423614 0.118098
vt 0.349683 0.183934
vt 0.377315 0.231757
vt 0.347137 0.237606
vt 0.320778 0.195097
vt 0.539874 0.247561
vt 0.541868 0.293976
vt 0.560257 0.249250
vt 0.431919 0.263907
vt 0.470769 0.235982
vt 0.075864 0.979972
vt 0.103181 0.971525
vt 0.222756 0.351616
vt 0.199986 0.362609
vt 0.162159 0.955892
vt 0.675078 0.160509
vt 0.644448 0.212874
vt 0.713783 0.204974
vt 0.525702 0.437573
vt 0.775967 0.345948
vt 0.807816 0.314780
vt 0.742152 0.300529
vt 0.701492 0.296242
vt 0.741681 0.338697
vt 0.244794 0.489649
vt 0.608805 0.545108
vt 0.457249 0.651121
vt 0.416799 0.634820
vt 0.379104 0.661313
vt 0.781010 0.244727
vt 0.746273 0.266501
vt 0.780913 0.274830
vt 0.522457 0.363759
vt 0.545614 0.386771
vt 0.564821 0.364357
vt 0.514557 0.385020
vt 0.702381 0.912516
vt 0.692907 0.867890
vt 0.673898 0.921905
vt 0.234667 0.353650
vt 0.261067 0.377485
vt 0.278192 0.359449
vt 0.640287 0.856945
vt 0.432818 0.319700
vt 0.402286 0.283294
vt 0.612144 0.271546
vt 0.572809 0.286446
vt 0.833123 0.201070
vt 0.809776 0.234731
vt 0.848873 0.247380
vt 0.521218 0.917479
vt 0.522032 0.873639
vt 0.465589 0.849973
vt 0.106592 0.141250
vt 0.374112 0.755015
vt 0.423124 0.732735
vt 0.764725 0.862520
vt 0.819891 0.862674
vt 0.784706 0.836780
vt 0.841984 0.838147
vt 0.810045 0.814132
vt 0.743179 0.828219
vt 0.473870 0.144528
vt 0.481147 0.115181
vt 0.440413 0.095948
vt 0.178630 0.081095
vt 0.230500 0.104426
vt 0.230194 0.044612
vt 0.190595 0.031855
vt 0.907905 0.904527
vt 0.281066 0.702565
vt 0.282101 0.722796
vt 0.699727 0.560313
vt 0.708386 0.534332
vt 0.688779 0.551858
vt 0.715789 0.833054
vt 0.715789 0.803196
vt 0.693163 0.817942
vt 0.932305 0.082053
vt 0.917975 0.104894
vt 0.941611 0.104894
vt 0.247071 0.569953
vt 0.306032 0.682157
vt 0.215948 0.215371
vt 0.223595 0.176764
vt 0.187353 0.220118
vt 0.211886 0.909258
vt 0.104449 0.030958
vt 0.123180 0.048472
vt 0.148205 0.030958
vt 0.803892 0.022757
vt 0.788612 0.059310
vt 0.465920 0.755015
vt 0.193558 0.845147
vt 0.226210 0.779296
vt 0.186089 0.796527
vt 0.491048 0.782417
vt 0.491852 0.817789
vt 0.269806 0.301554
vt 0.229927 0.300002
vt 0.478426 0.526653
vt 0.619471 0.127936
vt 0.630012 0.105967
vt 0.580320 0.117405
vt 0.274755 0.143588
vt 0.248601 0.137852
vt 0.274755 0.163498
vt 0.970538 0.724710
vt 0.279051 0.798401
vt 0.264883 0.776500
vt 0.932745 0.875752
vt 0.724524 0.963861
vt 0.684490 0.828719
vt 0.018835 0.829821
vt 0.020405 0.862244
vt 0.916904 0.372800
vt 0.942817 0.399942
vt 0.944213 0.363137
vt 0.919891 0.582112
vt 0.947657 0.597570
vt 0.326545 0.708150
vt 0.494842 0.210282
vt 0.514948 0.180842
vt 0.478250 0.165160
vt 0.639347 0.430649
vt 0.352631 0.087888
vt 0.370638 0.041570
vt 0.317773 0.041570
vt 0.278515 0.031855
vt 0.668548 0.113872
vt 0.664161 0.085188
vt 0.902591 0.206776
vt 0.868655 0.201070
vt 0.903752 0.253858
vt 0.468474 0.913781
vt 0.557939 0.897303
vt 0.569567 0.853489
vt 0.839991 0.088772
vt 0.854295 0.045852
vt 0.813739 0.071595
vt 0.143747 0.502094
vt 0.146550 0.400863
vt 0.118300 0.367855
vt 0.022056 0.894050
vt 0.042777 0.944826
vt 0.410104 0.174525
vt 0.439931 0.188371
vt 0.309768 0.919781
vt 0.298214 0.968910
vt 0.677935 0.322269
vt 0.665503 0.295213
vt 0.635376 0.341738
vt 0.943127 0.418162
vt 0.918181 0.459048
vt 0.548330 0.971872
vt 0.573629 0.926799
vt 0.089951 0.261363
vt 0.272341 0.647825
vt 0.279540 0.601174
vt 0.372305 0.269863
vt 0.827528 0.378558
vt 0.816017 0.406192
vt 0.871482 0.365153
vt 0.613839 0.564247
vt 0.173500 0.267047
vt 0.694614 0.521290
vt 0.734896 0.477473
vt 0.927536 0.550782
vt 0.904429 0.561103
vt 0.201511 0.699059
vt 0.656841 0.773701
vt 0.593658 0.766461
vt 0.644015 0.798174
vt 0.892820 0.498700
vt 0.931739 0.539202
vt 0.507234 0.668531
vt 0.586445 0.808952
vt 0.934021 0.767231
vt 0.428402 0.929931
vt 0.448408 0.938486
vt 0.680408 0.717129
vt 0.750604 0.722085
vt 0.167786 0.610170
vt 0.177735 0.572957
vt 0.078018 0.593236
vt 0.323158 0.252092
vt 0.298072 0.199908
vt 0.513491 0.147483
vt 0.537602 0.213312
vt 0.563082 0.220991
vt 0.591971 0.244232
vt 0.575845 0.180253
vt 0.536451 0.179178
vt 0.378029 0.534560
vt 0.613227 0.170329
vt 0.230779 0.269117
vt 0.570561 0.479831
vt 0.570561 0.532321
vt 0.852519 0.674625
vt 0.826720 0.685064
vt 0.851570 0.645536
vt 0.759165 0.088772
vt 0.582615 0.880845
vt 0.607420 0.925241
vt 0.625969 0.931113
vt 0.605697 0.849973
vt 0.688011 0.258837
vt 0.727916 0.237308
vt 0.229927 0.404496
vt 0.275388 0.398358
vt 0.813291 0.286523
vt 0.083089 0.152254
vt 0.037438 0.106239
vt 0.776483 0.805947
vt 0.843306 0.755093
vt 0.872183 0.780205
vt 0.863164 0.728409
vt 0.165665 0.355438
vt 0.397101 0.058708
vt 0.445677 0.132705
vt 0.060846 0.391675
vt 0.012834 0.394237
vt 0.708126 0.098998
vt 0.311746 0.118675
vt 0.298072 0.147743
vt 0.318903 0.157100
vt 0.116340 0.569953
vt 0.480032 0.071428
vt 0.477279 0.044538
vt 0.461215 0.076076
vt 0.083436 0.038670
vt 0.059925 0.038670
vt 0.058606 0.062114
vt 0.339691 0.400812
vt 0.292354 0.352145
vt 0.893710 0.576104
vt 0.857182 0.638047
vt 0.796018 0.737688
vt 0.803638 0.665171
vt 0.037438 0.058312
vt 0.726455 0.556447
vt 0.734437 0.534332
vt 0.147773 0.251309
vt 0.116577 0.248690
vt 0.437305 0.076076
vt 0.746830 0.638047
vt 0.193109 0.164743
vt 0.612845 0.295213
vt 0.590674 0.338778
vt 0.581688 0.302020
vt 0.387992 0.907747
vt 0.186521 0.101099
vt 0.193325 0.127646
vt 0.067855 0.722058
vt 0.025155 0.674410
vt 0.689242 0.780205
vt 0.736200 0.766094
vt 0.292198 0.063169
vt 0.270748 0.075591
vt 0.273668 0.090445
vt 0.298476 0.101547
vt 0.551037 0.144318
vt 0.581352 0.159340
vt 0.571113 0.085188
vt 0.536451 0.129946
vt 0.122353 0.779050
vt 0.447897 0.158270
vt 0.181669 0.381084
vt 0.723731 0.414764
vt 0.179546 0.560201
vt 0.366153 0.727680
vt 0.538341 0.677013
vt 0.531508 0.636341
vt 0.341429 0.585893
vt 0.334546 0.629327
vt 0.922765 0.332232
vt 0.875102 0.321356
vt 0.132340 0.151587
vt 0.864712 0.297168
vt 0.880876 0.269068
vt 0.427162 0.287113
vt 0.595728 0.294043
vt 0.460738 0.349811
vt 0.482390 0.322195
vt 0.483729 0.280870
vt 0.491404 0.368320
vt 0.513805 0.339155
vt 0.464797 0.392588
vt 0.638345 0.262485
vt 0.540135 0.341159
vt 0.894508 0.402847
vt 0.888446 0.418966
vt 0.909251 0.422899
vt 0.923289 0.420152
vt 0.153135 0.063284
vt 0.899250 0.171504
vt 0.161711 0.106529
vt 0.323976 0.646477
vt 0.347067 0.689933
vt 0.290026 0.226753
vt 0.257123 0.209446
vt 0.262581 0.239499
vt 0.804808 0.709562
vt 0.894972 0.666444
vt 0.610166 0.404470
vt 0.582886 0.437109
vt 0.611661 0.461850
vt 0.237861 0.418786
vt 0.271089 0.457092
vt 0.708484 0.353377
vt 0.440443 0.821335
vt 0.542148 0.463209
vt 0.267516 0.921630
vt 0.200293 0.358067
vt 0.219551 0.374076
vt 0.649887 0.162109
vt 0.062886 0.317473
vt 0.412932 0.269863
vt 0.348510 0.157100
vt 0.764606 0.760278
vt 0.782977 0.763538
vt 0.439424 0.879026
vt 0.780446 0.437556
vt 0.880896 0.798754
vt 0.878811 0.847622
vt 0.393454 0.850767
vt 0.682836 0.391784
vt 0.619445 0.377609
vt 0.524930 0.703280
vt 0.885253 0.539202
vt 0.792092 0.612453
vt 0.845312 0.606020
vt 0.856012 0.552285
vt 0.830798 0.638047
vt 0.068604 0.185515
vt 0.594660 0.734960
vt 0.649210 0.735486
vt 0.641118 0.693354
vt 0.409099 0.071391
vt 0.098652 0.267081
vt 0.243881 0.719572
vt 0.341532 0.555936
vt 0.325940 0.403782
vt 0.305946 0.059250
vt 0.960443 0.084249
vt 0.103553 0.505946
vt 0.722253 0.862674
vt 0.942804 0.256663
vt 0.933900 0.303999
vt 0.970958 0.286785
vt 0.577687 0.610263
vt 0.838528 0.333554
vt 0.816017 0.301463
vt 0.837628 0.107172
vt 0.799825 0.107861
vt 0.915078 0.294089
vt 0.318179 0.758301
vt 0.831500 0.872827
vt 0.541150 0.067966
vt 0.562384 0.051123
vt 0.541150 0.044427
vt 0.522436 0.264983
vt 0.503322 0.257549
vt 0.503322 0.278722
vt 0.861630 0.422899
vt 0.603845 0.383345
vt 0.770137 0.538218
vt 0.405372 0.914625
vt 0.047692 0.616957
vt 0.741621 0.639217
vt 0.105037 0.400863
vt 0.885456 0.083255
vt 0.257123 0.264556
vt 0.231030 0.375829
vt 0.363767 0.299567
vt 0.797525 0.201186
vt 0.020075 0.618273
vt 0.536451 0.316543
vt 0.480575 0.978359
vt 0.480769 0.543325
vt 0.511481 0.070658
vt 0.481208 0.493134
vt 0.501179 0.451139
vt 0.399380 0.814512
vt 0.368084 0.280061
vt 0.269080 0.129554
vt 0.953866 0.852265
vt 0.916904 0.346639
vt 0.021031 0.437872
vt 0.290197 0.610124
vt 0.537894 0.497299
vt 0.522864 0.236291
vt 0.511196 0.219424
vt 0.511196 0.244567
vt 0.904327 0.061007
vt 0.520441 0.719306
vt 0.722885 0.087115
vt 0.529564 0.307503
vt 0.455185 0.280061
vt 0.274167 0.105294
vt 0.292198 0.097727
vt 0.848075 0.824624
vt 0.770137 0.395215
vt 0.892826 0.102062
vt 0.653400 0.061178
vt 0.614123 0.084018
vt 0.658383 0.084018
vt 0.727916 0.163376
vt 0.885014 0.043599
vt 0.686458 0.081130
vt 0.262280 0.431859
vt 0.970958 0.341699
s 1
usemtl Asteroid_01
f 9/15/7 10/16/8 11/17/9
f 12/18/10 13/19/11 14/20/12
f 15/21/13 16/22/14 17/23/15
f 18/24/16 19/25/17 20/26/18
f 21/27/19 22/28/20 23/29/21
f 24/30/22 25/31/23 26/32/24
f 27/33/25 28/34/26 29/35/27
f 30/36/28 31/37/29 32/38/30
f 33/39/31 34/40/32 17/23/15
f 35/41/33 36/42/34 37/43/35
f 38/44/36 39/45/37 40/46/38
f 41/47/39 42/48/40 43/49/41
f 44/50/42 45/51/43 46/52/44
f 47/53/45 48/54/46 49/55/47
f 50/56/47 51/57/48 52/58/49
f 53/59/50 54/60/51 55/61/52
f 56/62/53 57/63/54 58/64/55
f 59/65/56 60/66/57 23/29/21
f 61/67/58 62/68/59 63/69/60
f 64/70/61 65/71/62 66/72/63
f 67/73/64 68/74/65 69/75/66
f 70/76/67 71/77/68 72/78/69
f 73/79/70 74/80/71 75/81/72
f 76/82/73 77/83/74 78/84/75
f 79/85/76 80/86/77 81/87/78
f 82/88/79 83/89/80 84/90/81
f 85/91/82 86/92/83 87/93/84
f 64/70/61 66/72/63 88/94/85
f 89/95/86 90/96/87 91/97/88
f 91/97/88 92/98/89 89/95/86
f 93/99/90 57/63/54 56/62/53
f 43/49/41 42/48/40 94/100/91
f 95/101/92 96/102/93 97/103/94
f 98/104/95 99/105/96 100/106/97
f 101/107/98 102/108/99 103/109/100
f 104/110/101 105/111/102 106/112/103
f 107/113/104 108/114/105 109/115/106
f 110/116/107 111/117/108 112/118/109
f 113/119/110 114/120/111 115/121/112
f 116/122/113 117/123/114 118/124/106
f 46/52/44 119/125/115 120/126/116
f 121/127/117 122/128/118 123/129/119
f 124/130/120 121/127/117 123/129/119
f 125/131/121 10/16/8 126/132/122
f 127/133/123 128/134/124 129/135/125
f 130/136/126 131/137/127 132/138/128
f 133/139/129 134/140/130 135/141/131
f 51/57/48 136/142/132 52/58/49
f 137/143/133 138/144/134 139/145/135
f 140/146/136 141/147/137 142/148/138
f 143/149/139 144/150/140 145/151/19
f 146/152/141 147/153/142 148/154/143
f 70/76/67 149/155/144 150/156/145
f 151/157/146 152/158/147 153/159/145
f 154/160/148 112/118/109 155/161/149
f 156/162/150 157/163/151 158/164/152
f 159/165/153 81/87/78 80/86/77
f 160/166/154 161/167/155 162/168/156
f 163/169/157 164/170/158 82/88/79
f 165/171/159 166/172/160 167/173/161
f 168/174/162 169/175/163 170/176/164
f 171/177/162 172/178/165 30/36/28
f 173/179/166 174/180/167 175/181/168
f 176/182/169 173/179/166 177/183/170
f 177/183/170 178/184/171 176/182/169
f 12/18/10 179/185/172 73/79/70
f 180/186/173 181/187/174 182/188/175
f 183/189/176 184/190/142 185/191/177
f 186/192/178 187/193/179 188/194/180
f 189/195/62 190/196/27 191/197/88
f 192/198/181 65/71/62 101/107/98
f 193/199/182 194/200/183 195/201/184
f 11/17/9 196/202/185 197/203/186
f 198/204/187 199/205/188 200/206/189
f 201/207/190 202/208/191 203/209/192
f 63/69/60 204/210/193 198/204/187
f 146/152/141 205/211/194 206/212/195
f 207/213/142 208/214/196 99/105/96
f 209/215/197 99/105/96 208/214/196
f 23/29/21 210/216/198 59/65/56
f 211/217/199 179/185/172 12/18/10
f 14/20/12 211/217/199 12/18/10
f 211/217/199 212/218/200 213/219/201
f 140/146/136 214/220/202 215/221/203
f 53/59/50 216/222/204 217/223/205
f 218/224/206 216/222/204 219/225/207
f 220/226/208 221/227/209 222/228/210
f 223/229/211 224/230/212 55/61/52
f 45/51/43 225/231/213 226/232/214
f 227/233/215 32/38/30 228/234/216
f 119/125/115 226/232/214 229/235/217
f 230/236/214 231/237/218 232/238/33
f 37/43/35 233/239/219 35/41/33
f 234/240/220 235/241/31 236/242/221
f 236/242/221 237/243/222 238/244/223
f 41/47/39 46/52/44 120/126/116
f 25/31/23 24/30/22 239/245/224
f 16/22/14 15/21/13 240/246/225
f 97/103/94 241/247/226 95/101/92
f 241/247/226 11/17/9 242/248/227
f 242/248/227 125/131/121 243/249/228
f 95/101/92 242/248/227 243/249/228
f 244/250/229 245/251/230 246/252/231
f 247/253/232 248/254/233 249/255/234
f 248/254/233 247/253/232 250/256/235
f 251/257/236 252/258/237 253/259/238
f 254/260/239 255/261/240 256/262/241
f 252/258/237 257/263/242 253/259/238
f 258/264/243 259/265/244 80/86/77
f 260/266/245 222/228/210 261/267/246
f 262/268/247 263/269/248 264/270/249
f 265/271/250 266/272/251 267/273/252
f 123/129/119 268/274/253 124/130/120
f 96/102/93 269/275/254 270/276/255
f 271/277/256 272/278/257 273/279/258
f 273/279/258 274/280/259 275/281/127
f 271/277/256 273/279/258 276/282/260
f 136/142/132 132/138/128 174/180/167
f 277/283/261 278/284/262 279/285/263
f 280/286/264 281/287/101 282/288/100
f 282/288/100 283/289/86 280/286/264
f 284/290/265 114/120/111 113/119/110
f 285/291/266 286/292/267 151/157/146
f 287/293/268 288/294/269 289/295/270
f 290/296/271 291/297/272 292/298/273
f 293/299/274 294/300/275 295/301/276
f 110/116/107 112/118/109 296/302/277
f 14/20/12 111/117/108 110/116/107
f 285/291/266 151/157/146 297/303/278
f 298/304/186 299/305/279 300/306/280
f 120/126/116 229/235/217 301/307/281
f 248/254/233 36/42/34 249/255/234
f 302/308/227 303/309/282 304/310/283
f 305/311/254 127/133/123 306/312/284
f 97/103/94 270/276/255 307/313/285
f 308/314/286 309/315/287 310/316/288
f 311/317/281 312/318/289 202/208/191
f 313/319/290 314/320/291 256/262/241
f 51/57/48 315/321/292 136/142/132
f 316/322/293 317/323/294 318/324/295
f 319/325/296 320/326/297 321/327/298
f 147/153/142 146/152/141 322/328/299
f 323/329/300 204/210/193 324/330/301
f 194/200/183 325/331/302 195/201/184
f 326/332/62 188/194/180 29/35/27
f 327/333/270 290/296/271 292/298/273
f 328/334/303 329/335/162 94/100/91
f 330/336/304 331/337/159 332/338/305
f 333/339/306 160/166/154 334/340/307
f 335/341/308 151/157/146 153/159/145
f 336/342/309 337/343/310 338/344/311
f 96/102/93 95/101/92 243/249/228
f 34/40/32 339/345/312 17/23/15
f 340/346/313 341/347/314 342/348/315
f 343/349/103 282/288/100 281/287/101
f 317/323/294 344/350/316 345/351/317
f 80/86/77 79/85/76 258/264/243
f 346/352/318 347/353/319 348/354/320
f 267/273/252 349/355/321 265/271/250
f 350/356/322 351/357/230 266/272/251
f 352/358/323 353/359/255 354/360/324
f 355/361/325 25/31/23 77/83/74
f 356/362/326 31/37/29 357/363/327
f 358/364/28 359/365/30 44/50/42
f 45/51/43 44/50/42 359/365/30
f 360/366/328 53/59/50 361/367/329
f 211/217/199 14/20/12 212/218/200
f 362/368/330 363/369/331 117/123/114
f 325/331/302 284/290/265 195/201/184
f 364/370/332 365/371/333 366/372/334
f 323/329/300 198/204/187 204/210/193
f 20/26/18 367/373/185 368/374/183
f 350/356/322 369/375/335 370/376/336
f 371/377/337 105/111/102 183/189/176
f 112/118/109 372/378/338 373/379/339
f 374/380/340 54/60/51 218/224/206
f 375/381/341 376/382/342 377/383/343
f 378/384/83 156/162/150 158/164/152
f 166/172/160 379/385/344 167/173/161
f 17/23/15 380/386/345 381/387/346
f 168/174/162 382/388/347 383/389/348
f 73/79/70 384/390/349 13/19/11
f 385/391/350 386/392/351 387/393/177
f 188/194/180 187/193/179 27/33/25
f 65/71/62 192/198/181 66/72/63
f 188/194/180 27/33/25 29/35/27
f 388/394/352 389/395/353 18/24/16
f 241/247/226 390/396/354 196/202/185
f 199/205/188 324/330/301 309/315/287
f 201/207/190 203/209/192 391/397/331
f 392/398/101 205/211/194 146/152/141
f 349/355/321 393/399/355 394/400/356
f 395/401/357 396/402/358 137/143/133
f 23/29/21 60/66/57 57/63/54
f 397/403/359 212/218/200 14/20/12
f 397/403/359 110/116/107 398/404/360
f 212/218/200 399/405/361 213/219/201
f 400/406/362 219/225/207 401/407/135
f 402/408/363 278/284/262 277/283/261
f 403/409/364 220/226/208 404/410/365
f 404/410/365 405/411/366 406/412/367
f 407/413/368 404/410/365 406/412/367
f 173/179/166 176/182/169 408/414/45
f 45/51/43 226/232/214 119/125/115
f 231/237/218 409/415/369 406/412/367
f 203/209/192 202/208/191 312/318/289
f 314/320/291 313/319/290 410/416/370
f 199/205/188 309/315/287 308/314/286
f 15/21/13 411/417/371 412/418/127
f 412/418/127 240/246/225 15/21/13
f 270/276/255 97/103/94 96/102/93
f 134/140/130 413/419/372 414/420/373
f 413/419/372 415/421/374 414/420/373
f 416/422/375 354/360/324 306/312/284
f 305/311/254 306/312/284 354/360/324
f 417/423/376 418/424/104 419/425/106
f 417/423/376 420/426/377 351/357/230
f 421/427/378 422/428/34 232/238/33
f 423/429/379 424/430/331 255/261/240
f 246/252/231 263/269/248 244/250/229
f 425/431/380 264/270/249 263/269/248
f 268/274/253 123/129/119 426/432/381
f 427/433/80 426/432/381 123/129/119
f 273/279/258 275/281/127 428/434/382
f 17/23/15 381/387/346 33/39/31
f 429/435/383 430/436/384 431/437/385
f 135/141/131 431/437/385 430/436/384
f 31/37/29 432/438/386 32/38/30
f 340/346/313 433/439/387 341/347/314
f 215/221/203 214/220/202 434/440/388
f 435/441/262 48/54/46 436/442/389
f 345/351/317 344/350/316 437/443/262
f 438/444/390 439/445/391 440/446/392
f 212/218/200 397/403/359 441/447/393
f 193/199/182 195/201/184 113/119/110
f 442/448/394 443/449/395 180/186/173
f 442/448/394 180/186/173 444/450/396
f 111/117/108 14/20/12 13/19/11
f 445/451/109 446/452/272 447/453/397
f 448/454/398 159/165/153 449/455/399
f 161/167/155 450/456/400 451/457/401
f 138/144/134 452/458/401 453/459/157
f 296/302/277 398/404/360 110/116/107
f 446/452/272 454/460/402 447/453/397
f 287/293/268 455/461/403 288/294/269
f 456/462/109 288/294/269 455/461/403
f 151/157/146 286/292/267 152/158/147
f 457/463/404 105/111/102 458/464/174
f 181/187/174 180/186/173 443/449/395
f 458/464/174 105/111/102 371/377/337
f 180/186/173 459/465/405 444/450/396
f 300/306/280 106/112/103 105/111/102
f 460/466/17 66/72/63 192/198/181
f 461/467/181 300/306/280 299/305/279
f 366/372/334 462/468/406 463/469/407
f 464/470/59 463/469/407 462/468/406
f 113/119/110 195/201/184 284/290/265
f 117/123/114 116/122/113 362/368/330
f 116/122/113 61/67/58 63/69/60
f 116/122/113 465/471/105 61/67/58
f 281/287/101 466/472/408 467/473/409
f 281/287/101 280/286/264 466/472/408
f 468/474/410 213/219/201 469/475/411
f 470/476/411 471/477/412 395/401/357
f 397/403/359 398/404/360 441/447/393
f 472/478/413 473/479/414 474/480/415
f 439/445/391 438/444/390 475/481/416
f 318/324/295 476/482/390 477/483/138
f 318/324/295 478/484/417 479/485/71
f 476/482/390 318/324/295 479/485/71
f 480/486/135 74/80/71 179/185/172
f 279/285/263 434/440/388 277/283/261
f 338/344/311 481/487/418 361/367/329
f 361/367/329 481/487/418 360/366/328
f 174/180/167 173/179/166 136/142/132
f 482/488/419 432/438/386 31/37/29
f 228/234/216 32/38/30 432/438/386
f 119/125/115 229/235/217 120/126/116
f 33/39/31 483/489/220 34/40/32
f 428/434/382 276/282/260 273/279/258
f 24/30/22 26/32/24 484/490/127
f 96/102/93 243/249/228 485/491/420
f 305/311/254 354/360/324 353/359/255
f 486/492/122 149/155/144 487/493/121
f 488/494/421 489/495/422 125/131/121
f 490/496/251 491/497/423 377/383/343
f 492/498/424 268/274/253 426/432/381
f 264/270/249 347/353/319 262/268/247
f 493/499/237 494/500/425 264/270/249
f 264/270/249 425/431/380 493/499/237
f 259/265/244 258/264/243 495/501/426
f 260/266/245 261/267/246 496/502/427
f 221/227/209 261/267/246 222/228/210
f 258/264/243 497/503/428 498/504/429
f 498/504/429 499/505/430 258/264/243
f 498/504/429 500/506/247 501/507/431
f 79/85/76 502/508/432 500/506/247
f 500/506/247 497/503/428 79/85/76
f 406/412/367 405/411/366 231/237/218
f 503/509/433 405/411/366 260/266/245
f 255/261/240 424/430/331 256/262/241
f 249/255/234 504/510/379 247/253/232
f 350/356/322 266/272/251 265/271/250
f 265/271/250 369/375/335 350/356/322
f 420/426/377 417/423/376 257/263/242
f 419/425/106 257/263/242 417/423/376
f 370/376/336 417/423/376 350/356/322
f 417/423/376 370/376/336 418/424/104
f 505/511/434 506/512/435 507/513/436
f 507/513/436 508/514/437 505/511/434
f 121/127/117 124/130/120 509/515/438
f 510/516/439 39/45/37 38/44/36
f 124/130/120 492/498/424 511/517/440
f 124/130/120 511/517/440 509/515/438
f 512/518/441 513/519/442 243/249/228
f 514/520/443 515/521/226 516/522/444
f 11/17/9 125/131/121 242/248/227
f 517/523/445 429/435/383 431/437/385
f 416/422/375 306/312/284 129/135/125
f 129/135/125 128/134/124 416/422/375
f 518/524/446 415/421/374 413/419/372
f 413/419/372 134/140/130 518/524/446
f 134/140/130 414/420/373 431/437/385
f 339/345/312 519/525/447 520/526/448
f 520/526/448 521/527/449 339/345/312
f 522/528/450 239/245/224 523/529/123
f 521/527/449 17/23/15 339/345/312
f 17/23/15 521/527/449 15/21/13
f 25/31/23 78/84/75 77/83/74
f 120/126/116 308/314/286 41/47/39
f 200/206/189 199/205/188 308/314/286
f 308/314/286 120/126/116 200/206/189
f 524/530/451 238/244/223 237/243/222
f 238/244/223 234/240/220 236/242/221
f 312/318/289 311/317/281 525/531/452
f 233/239/219 37/43/35 250/256/235
f 526/532/370 35/41/33 233/239/219
f 311/317/281 202/208/191 201/207/190
f 314/320/291 254/260/239 256/262/241
f 527/533/190 200/206/189 301/307/281
f 528/534/216 482/488/419 529/535/215
f 231/237/218 530/536/213 409/415/369
f 136/142/132 173/179/166 52/58/49
f 48/54/46 47/53/45 436/442/389
f 317/323/294 345/351/317 478/484/417
f 357/363/327 531/537/48 48/54/46
f 48/54/46 531/537/48 49/55/47
f 136/142/132 315/321/292 130/136/126
f 338/344/311 55/61/52 224/230/212
f 55/61/52 532/538/453 223/229/211
f 404/410/365 222/228/210 405/411/366
f 218/224/206 219/225/207 400/406/362
f 374/380/340 218/224/206 400/406/362
f 217/223/205 218/224/206 54/60/51
f 141/147/137 140/146/136 215/221/203
f 140/146/136 533/539/454 214/220/202
f 142/148/138 533/539/454 140/146/136
f 14/20/12 110/116/107 397/403/359
f 534/540/455 535/541/456 396/402/358
f 471/477/412 534/540/455 396/402/358
f 452/458/401 396/402/358 535/541/456
f 138/144/134 396/402/358 452/458/401
f 396/402/358 395/401/357 471/477/412
f 393/399/355 349/355/321 536/542/20
f 57/63/54 93/99/90 21/27/19
f 21/27/19 23/29/21 57/63/54
f 537/543/457 21/27/19 93/99/90
f 210/216/198 23/29/21 22/28/20
f 536/542/20 349/355/321 267/273/252
f 207/213/142 99/105/96 98/104/95
f 143/149/139 145/151/19 538/544/458
f 539/545/459 143/149/139 538/544/458
f 61/67/58 540/546/460 62/68/59
f 204/210/193 63/69/60 62/68/59
f 200/206/189 527/533/190 362/368/330
f 362/368/330 63/69/60 200/206/189
f 541/547/461 366/372/334 542/548/462
f 463/469/407 542/548/462 366/372/334
f 524/530/451 237/243/222 364/370/332
f 324/330/301 199/205/188 198/204/187
f 365/371/333 364/370/332 237/243/222
f 390/396/354 241/247/226 543/549/265
f 115/121/112 193/199/182 113/119/110
f 388/394/352 544/550/112 389/395/353
f 18/24/16 20/26/18 368/374/183
f 102/108/99 101/107/98 65/71/62
f 88/94/85 545/551/353 546/552/463
f 546/552/463 547/553/464 88/94/85
f 545/551/353 548/554/112 546/552/463
f 187/193/179 186/192/178 108/114/105
f 105/111/102 104/110/101 549/555/465
f 550/556/466 386/392/351 385/391/350
f 385/391/350 551/557/297 550/556/466
f 183/189/176 549/555/465 184/190/142
f 149/155/144 550/556/466 552/558/413
f 551/557/297 552/558/413 550/556/466
f 182/188/175 553/559/67 459/465/405
f 371/377/337 554/560/467 458/464/174
f 550/556/466 149/155/144 70/76/67
f 384/390/349 73/79/70 555/561/468
f 75/81/72 555/561/468 73/79/70
f 73/79/70 179/185/172 74/80/71
f 178/184/171 556/562/317 176/182/169
f 557/563/469 175/181/168 174/180/167
f 342/348/315 558/564/469 340/346/313
f 175/181/168 177/183/170 173/179/166
f 168/174/162 170/176/164 382/388/347
f 31/37/29 30/36/28 172/178/165
f 94/100/91 44/50/42 43/49/41
f 46/52/44 43/49/41 44/50/42
f 44/50/42 329/335/162 358/364/28
f 293/299/274 295/301/276 559/565/163
f 87/93/84 560/566/339 85/91/82
f 561/567/339 271/277/256 276/282/260
f 562/568/470 563/569/471 564/570/472
f 565/571/159 157/163/151 156/162/150
f 565/571/159 149/155/144 157/163/151
f 566/572/473 491/497/423 567/573/307
f 375/381/341 377/383/343 566/572/473
f 568/574/76 569/575/78 84/90/81
f 39/45/37 568/574/76 84/90/81
f 427/433/80 123/129/119 122/128/118
f 163/169/157 82/88/79 569/575/78
f 159/165/153 448/454/398 81/87/78
f 162/168/156 161/167/155 451/457/401
f 161/167/155 160/166/154 333/339/306
f 333/339/306 450/456/400 161/167/155
f 570/576/474 563/569/471 562/568/470
f 373/379/339 296/302/277 112/118/109
f 380/386/345 17/23/15 16/22/14
f 154/160/148 372/378/338 112/118/109
f 13/19/11 12/18/10 73/79/70
f 153/159/145 152/158/147 571/577/67
f 486/492/122 150/156/145 149/155/144
f 72/78/69 386/392/351 550/556/466
f 27/33/25 187/193/179 572/578/336
f 573/579/435 574/580/475 575/581/476
f 576/582/64 577/583/436 578/584/435
f 505/511/434 579/585/179 506/512/435
f 18/24/16 389/395/353 19/25/17
f 324/330/301 198/204/187 323/329/300
f 541/547/461 364/370/332 366/372/334
f 542/548/462 463/469/407 580/586/477
f 363/369/331 362/368/330 527/533/190
f 200/206/189 63/69/60 198/204/187
f 465/471/105 540/546/460 61/67/58
f 146/152/141 206/212/195 322/328/299
f 581/587/140 22/28/20 21/27/19
f 582/588/194 393/399/355 536/542/20
f 60/66/57 58/64/55 57/63/54
f 537/543/457 93/99/90 56/62/53
f 399/405/361 583/589/350 213/219/201
f 318/324/295 477/483/138 316/322/293
f 216/222/204 218/224/206 217/223/205
f 53/59/50 360/366/328 216/222/204
f 139/145/135 138/144/134 584/590/478
f 357/363/327 48/54/46 435/441/262
f 585/591/363 357/363/327 435/441/262
f 338/344/311 224/230/212 336/342/309
f 404/410/365 407/413/368 403/409/364
f 361/367/329 53/59/50 55/61/52
f 132/138/128 136/142/132 130/136/126
f 50/56/47 52/58/49 408/414/45
f 530/536/213 231/237/218 230/236/214
f 31/37/29 356/362/326 482/488/419
f 135/141/131 134/140/130 431/437/385
f 308/314/286 310/316/288 42/48/40
f 42/48/40 41/47/39 308/314/286
f 411/417/371 15/21/13 521/527/449
f 521/527/449 520/526/448 411/417/371
f 353/359/255 352/358/323 586/592/285
f 129/135/125 306/312/284 127/133/123
f 10/16/8 125/131/121 11/17/9
f 587/593/479 514/520/443 516/522/444
f 489/495/422 512/518/441 125/131/121
f 351/357/230 350/356/322 417/423/376
f 494/500/425 348/354/320 347/353/319
f 255/261/240 588/594/480 423/429/379
f 255/261/240 254/260/239 588/594/480
f 222/228/210 260/266/245 405/411/366
f 497/503/428 258/264/243 79/85/76
f 80/86/77 589/595/481 159/165/153
f 263/269/248 590/596/37 244/250/229
f 263/269/248 262/268/247 590/596/37
f 25/31/23 522/528/450 78/84/75
f 485/491/420 243/249/228 513/519/442
f 172/178/165 357/363/327 31/37/29
f 215/221/203 279/285/263 141/147/137
f 279/285/263 215/221/203 434/440/388
f 469/475/411 583/589/350 591/597/177
f 118/124/106 465/471/105 116/122/113
f 463/469/407 464/470/59 592/598/482
f 369/375/335 265/271/250 593/599/483
f 594/600/395 10/16/8 9/15/7
f 595/601/8 443/449/395 442/448/394
f 130/136/126 315/321/292 596/602/484
f 130/136/126 596/602/484 597/603/14
f 584/590/478 138/144/134 453/459/157
f 461/467/181 106/112/103 300/306/280
f 62/68/59 540/546/460 598/604/112
f 552/558/413 157/163/151 149/155/144
f 316/322/293 344/350/316 317/323/294
f 566/572/473 377/383/343 491/497/423
f 599/605/209 589/595/481 259/265/244
f 589/595/481 80/86/77 259/265/244
f 125/131/121 512/518/441 243/249/228
f 25/31/23 355/361/325 26/32/24
f 320/326/297 319/325/296 600/606/414
f 468/474/410 211/217/199 213/219/201
f 148/154/143 392/398/101 146/152/141
f 194/200/183 601/607/185 325/331/302
f 84/90/81 569/575/78 82/88/79
f 83/89/80 82/88/79 164/170/158
f 40/46/38 84/90/81 83/89/80
f 84/90/81 40/46/38 39/45/37
f 332/338/305 602/608/83 330/336/304
f 603/609/152 87/93/84 86/92/83
f 85/91/82 355/361/325 77/83/74
f 77/83/74 76/82/73 85/91/82
f 512/518/441 489/495/422 604/610/83
f 86/92/83 85/91/82 76/82/73
f 560/566/339 355/361/325 85/91/82
f 94/100/91 329/335/162 44/50/42
f 531/537/48 357/363/327 172/178/165
f 315/321/292 605/611/162 596/602/484
f 154/160/148 155/161/149 555/561/468
f 155/161/149 384/390/349 555/561/468
f 72/78/69 550/556/466 70/76/67
f 459/465/405 180/186/173 182/188/175
f 549/555/465 183/189/176 105/111/102
f 606/612/436 607/613/476 608/614/66
f 107/113/104 187/193/179 108/114/105
f 545/551/353 88/94/85 66/72/63
f 66/72/63 460/466/17 545/551/353
f 191/197/88 609/615/99 189/195/62
f 241/247/226 196/202/185 11/17/9
f 462/468/406 366/372/334 365/371/333
f 543/549/265 97/103/94 610/616/485
f 543/549/265 241/247/226 97/103/94
f 610/616/485 97/103/94 307/313/285
f 265/271/250 349/355/321 593/599/483
f 211/217/199 468/474/410 179/185/172
f 137/143/133 396/402/358 138/144/134
f 54/60/51 53/59/50 217/223/205
f 220/226/208 222/228/210 404/410/365
f 55/61/52 54/60/51 532/538/453
f 55/61/52 338/344/311 361/367/329
f 173/179/166 408/414/45 52/58/49
f 225/231/213 45/51/43 359/365/30
f 119/125/115 46/52/44 45/51/43
f 432/438/386 482/488/419 528/534/216
f 133/139/129 518/524/446 134/140/130
f 43/49/41 46/52/44 41/47/39
f 25/31/23 239/245/224 522/528/450
f 611/617/486 416/422/375 128/134/124
f 36/42/34 248/254/233 37/43/35
f 250/256/235 37/43/35 248/254/233
f 232/238/33 231/237/218 421/427/378
f 257/263/242 419/425/106 253/259/238
f 405/411/366 503/509/433 231/237/218
f 612/618/487 499/505/430 498/504/429
f 498/504/429 501/507/431 612/618/487
f 503/509/433 421/427/378 231/237/218
f 500/506/247 498/504/429 497/503/428
f 499/505/430 613/619/245 258/264/243
f 495/501/426 258/264/243 613/619/245
f 425/431/380 263/269/248 246/252/231
f 492/498/424 124/130/120 268/274/253
f 149/155/144 565/571/159 487/493/121
f 269/275/254 96/102/93 485/491/420
f 274/280/259 273/279/258 272/278/257
f 438/444/390 440/446/392 142/148/138
f 533/539/454 142/148/138 440/446/392
f 614/620/488 320/326/297 600/606/414
f 474/480/415 615/621/298 472/478/413
f 539/545/459 538/544/458 616/622/489
f 56/62/53 617/623/411 537/543/457
f 469/475/411 213/219/201 583/589/350
f 362/368/330 116/122/113 63/69/60
f 300/306/280 105/111/102 457/463/404
f 151/157/146 335/341/308 297/303/278
f 294/300/275 293/299/274 618/624/490
f 619/625/491 620/626/492 621/627/493
f 157/163/151 552/558/413 158/164/152
f 494/500/425 347/353/319 264/270/249
f 431/437/385 414/420/373 517/523/445
f 622/628/494 230/236/214 232/238/33
f 120/126/116 301/307/281 200/206/189
f 556/562/317 408/414/45 176/182/169
f 356/362/326 357/363/327 585/591/363
f 478/484/417 318/324/295 317/323/294
f 349/355/321 394/400/356 593/599/483
f 524/530/451 364/370/332 541/547/461
f 11/17/9 197/203/186 9/15/7
f 368/374/183 388/394/352 18/24/16
f 609/615/99 191/197/88 623/629/87
f 619/625/491 621/627/493 624/630/345
f 54/60/51 374/380/340 532/538/453
f 522/528/450 523/529/123 625/631/254
f 563/569/471 626/632/314 564/570/472
